<svg width="118" height="26" fill="none" xmlns="http://www.w3.org/2000/svg"><circle cx="13" cy="13" r="13" fill="#212529"/><path d="M11.804 6.247s1.579-.964 2.814-1.168c1.236-.204 2.156 0 2.609.475.453.476 3.117 3.14 3.117 3.14s-1.277-1.441-5.025.597l-1.03-2.188-2.485-.856z" fill="#fff"/><path d="M17.557 8.802s1.537-.666 3.061.353c0 0 1.154 1.672-.549 4.648-1.689 2.962-5.052 6.115-8.114 7.012-3.062.897-3.597-1.671-3.02-3.33 0 0 3.294-1.277 5.354-3.532 1.963-2.161 2.87-3.71 3.268-5.15z" fill="#fff"/><path d="M11.968 14.469V8.136L5.941 9.305l1.25 1.074c-.618.801-1.648 2.282-2.005 3.628-.453 1.726.027 2.88.33 3.18.301.299 3.116 3.057 3.116 3.057-1.194-2.84 1.126-5.87 2.018-6.89l1.318 1.115z" fill="#fff"/><path d="M47.007 14.275v-7.9H49.6V19.5h-2.592v-2.1c-.385.617-.956 1.167-1.71 1.65-.738.467-1.627.7-2.667.7-1.376 0-2.491-.467-3.347-1.4-.855-.933-1.283-2.225-1.283-3.875v-8.1h2.592v7.4c0 .667.1 1.283.301 1.85A3.108 3.108 0 0041.9 17c.47.333 1.065.5 1.786.5.906 0 1.686-.283 2.34-.85.654-.567.981-1.358.981-2.375zM60.128 6.15c1.174 0 2.222.292 3.145.875.94.567 1.677 1.358 2.214 2.375.537 1.017.805 2.192.805 3.525 0 1.317-.268 2.492-.805 3.525-.537 1.017-1.266 1.817-2.19 2.4-.922.583-1.953.875-3.094.875-.94 0-1.795-.2-2.566-.6-.755-.4-1.35-.858-1.787-1.375V25h-2.616V6.35h2.616v1.925c.386-.55.965-1.042 1.736-1.475a5.101 5.101 0 012.542-.65zm-.352 2.375c-.789 0-1.493.192-2.114.575a4.084 4.084 0 00-1.434 1.575c-.336.65-.503 1.4-.503 2.25 0 .833.167 1.583.503 2.25.352.667.83 1.2 1.434 1.6.62.383 1.325.575 2.114.575.788 0 1.484-.192 2.088-.575a4.083 4.083 0 001.409-1.6c.352-.667.528-1.417.528-2.25 0-.85-.176-1.6-.528-2.25a3.9 3.9 0 00-1.41-1.575c-.603-.383-1.3-.575-2.087-.575zm9.33 10.975V1h2.592v18.5h-2.592zm18.7-6.575c0 1.333-.302 2.517-.905 3.55a6.401 6.401 0 01-2.416 2.4c-1.006.583-2.138.875-3.396.875s-2.399-.292-3.422-.875a6.589 6.589 0 01-2.44-2.4c-.588-1.033-.881-2.217-.881-3.55 0-1.333.293-2.508.88-3.525a6.533 6.533 0 012.44-2.425c1.024-.583 2.165-.875 3.423-.875s2.39.292 3.396.875A6.35 6.35 0 0186.901 9.4c.603 1.017.905 2.192.905 3.525zm-2.641 0c.016-.883-.16-1.658-.529-2.325-.352-.683-.838-1.208-1.46-1.575a3.893 3.893 0 00-2.087-.575c-.772 0-1.476.192-2.114.575-.62.367-1.115.892-1.484 1.575-.353.667-.52 1.442-.504 2.325-.016.867.151 1.642.504 2.325a4.206 4.206 0 001.484 1.575 4.023 4.023 0 002.114.575c.771 0 1.467-.192 2.088-.575a4.017 4.017 0 001.46-1.575c.368-.683.544-1.458.528-2.325zm17.769-6.55V19.5h-2.617v-2.025c-.402.55-.998 1.067-1.786 1.55-.789.483-1.703.725-2.743.725a5.583 5.583 0 01-3.044-.875c-.906-.583-1.627-1.392-2.164-2.425-.537-1.033-.805-2.217-.805-3.55 0-1.333.277-2.508.83-3.525.554-1.033 1.317-1.833 2.29-2.4.973-.583 2.08-.875 3.32-.875.923 0 1.729.2 2.416.6.705.4 1.267.867 1.686 1.4V6.375h2.617zm-6.542 11c.805 0 1.51-.192 2.114-.575a4.082 4.082 0 001.408-1.6c.336-.683.504-1.45.504-2.3 0-.833-.168-1.583-.504-2.25a3.9 3.9 0 00-1.409-1.575c-.603-.4-1.308-.6-2.113-.6-.772 0-1.46.192-2.063.575a3.899 3.899 0 00-1.41 1.575c-.335.667-.502 1.425-.502 2.275 0 .85.167 1.617.503 2.3.335.667.805 1.2 1.409 1.6.604.383 1.291.575 2.063.575zM113.471 6.1c1.191 0 2.114.242 2.768.725.654.483 1.107 1.133 1.358 1.95.269.817.403 1.725.403 2.725v8h-2.592v-7.825c0-.633-.083-1.2-.251-1.7a2.277 2.277 0 00-.856-1.175c-.402-.283-.964-.4-1.685-.35-.671 0-1.267.142-1.787.425A3.34 3.34 0 00109.596 10a2.8 2.8 0 00-.452 1.55v7.95h-2.592V6.375h2.592V8.45c.402-.617.989-1.158 1.761-1.625a4.735 4.735 0 012.566-.725z" fill="#212529"/></svg>