<svg width="118" height="26" viewBox="0 0 118 26" fill="none" xmlns="http://www.w3.org/2000/svg">
<path fill-rule="evenodd" clip-rule="evenodd" d="M13 26C20.1797 26 26 20.1797 26 13C26 5.8203 20.1797 0 13 0C5.8203 0 0 5.8203 0 13C0 20.1797 5.8203 26 13 26ZM14.6182 5.07871C13.3825 5.28255 11.8036 6.24738 11.8036 6.24738L14.2887 7.1035L15.3185 9.29136C18.7662 7.4164 20.123 8.48483 20.3184 8.6682L20.3436 8.69344C20.3436 8.69344 20.3354 8.68418 20.3184 8.6682C20.0461 8.39587 17.6541 6.00274 17.2269 5.55433C16.7738 5.07871 15.8539 4.87487 14.6182 5.07871ZM17.5564 8.80217C17.5564 8.80217 19.0941 8.1363 20.6182 9.15549C20.6182 9.15549 21.7715 10.827 20.069 13.803C18.3802 16.7655 15.0163 19.9181 11.9546 20.815C8.89279 21.7119 8.35732 19.1436 8.93398 17.4857C8.93398 17.4857 12.2292 16.2083 14.2887 13.9525C16.252 11.7918 17.1582 10.2426 17.5564 8.80217ZM11.9684 8.13623V14.4688L10.6503 13.3545C9.75785 14.3737 7.4375 17.4041 8.632 20.2442C8.632 20.2442 5.81736 17.4856 5.5153 17.1866C5.21325 16.8877 4.7327 15.7326 5.18579 14.0068C5.54276 12.6614 6.57251 11.1802 7.19036 10.3785L5.94093 9.3049L11.9684 8.13623Z" fill="#212529"/>
<path d="M47.0074 14.275V6.375H49.5989V19.5H47.0074V17.4C46.6216 18.0167 46.0513 18.5667 45.2965 19.05C44.5585 19.5167 43.6695 19.75 42.6295 19.75C41.2541 19.75 40.1386 19.2833 39.2832 18.35C38.4277 17.4167 38 16.125 38 14.475V6.375H40.5915V13.775C40.5915 14.4417 40.6922 15.0583 40.8934 15.625C41.1115 16.1917 41.447 16.65 41.8998 17C42.3695 17.3333 42.965 17.5 43.6862 17.5C44.592 17.5 45.372 17.2167 46.0261 16.65C46.6803 16.0833 47.0074 15.2917 47.0074 14.275Z" fill="#212529"/>
<path d="M60.1277 6.15C61.3019 6.15 62.3502 6.44167 63.2728 7.025C64.2121 7.59167 64.9501 8.38333 65.4869 9.4C66.0236 10.4167 66.292 11.5917 66.292 12.925C66.292 14.2417 66.0236 15.4167 65.4869 16.45C64.9501 17.4667 64.2205 18.2667 63.2979 18.85C62.3754 19.4333 61.3438 19.725 60.2032 19.725C59.2639 19.725 58.4084 19.525 57.6368 19.125C56.882 18.725 56.2866 18.2667 55.8505 17.75V25H53.2338V6.35H55.8505V8.275C56.2363 7.725 56.8149 7.23333 57.5865 6.8C58.3581 6.36667 59.2052 6.15 60.1277 6.15ZM59.7755 8.525C58.9871 8.525 58.2826 8.71667 57.662 9.1C57.0582 9.48333 56.5801 10.0083 56.2279 10.675C55.8924 11.325 55.7247 12.075 55.7247 12.925C55.7247 13.7583 55.8924 14.5083 56.2279 15.175C56.5801 15.8417 57.0582 16.375 57.662 16.775C58.2826 17.1583 58.9871 17.35 59.7755 17.35C60.5638 17.35 61.2599 17.1583 61.8638 16.775C62.4676 16.375 62.9373 15.8417 63.2728 15.175C63.625 14.5083 63.8011 13.7583 63.8011 12.925C63.8011 12.075 63.625 11.325 63.2728 10.675C62.9373 10.0083 62.4676 9.48333 61.8638 9.1C61.2599 8.71667 60.5638 8.525 59.7755 8.525Z" fill="#212529"/>
<path d="M69.1064 19.5V1H71.6979V19.5H69.1064Z" fill="#212529"/>
<path d="M87.8064 12.925C87.8064 14.2583 87.5045 15.4417 86.9007 16.475C86.3136 17.4917 85.5085 18.2917 84.4853 18.875C83.4789 19.4583 82.3466 19.75 81.0886 19.75C79.8306 19.75 78.69 19.4583 77.6668 18.875C76.6436 18.2917 75.8301 17.4917 75.2263 16.475C74.6392 15.4417 74.3457 14.2583 74.3457 12.925C74.3457 11.5917 74.6392 10.4167 75.2263 9.4C75.8301 8.36667 76.6436 7.55833 77.6668 6.975C78.69 6.39167 79.8306 6.1 81.0886 6.1C82.3466 6.1 83.4789 6.39167 84.4853 6.975C85.5085 7.55833 86.3136 8.36667 86.9007 9.4C87.5045 10.4167 87.8064 11.5917 87.8064 12.925ZM85.1646 12.925C85.1814 12.0417 85.0052 11.2667 84.6362 10.6C84.284 9.91667 83.7976 9.39167 83.1769 9.025C82.5563 8.64167 81.8602 8.45 81.0886 8.45C80.317 8.45 79.6126 8.64167 78.9752 9.025C78.3545 9.39167 77.8597 9.91667 77.4907 10.6C77.1385 11.2667 76.9707 12.0417 76.9875 12.925C76.9707 13.7917 77.1385 14.5667 77.4907 15.25C77.8597 15.9167 78.3545 16.4417 78.9752 16.825C79.6126 17.2083 80.317 17.4 81.0886 17.4C81.8602 17.4 82.5563 17.2083 83.1769 16.825C83.7976 16.4417 84.284 15.9167 84.6362 15.25C85.0052 14.5667 85.1814 13.7917 85.1646 12.925Z" fill="#212529"/>
<path d="M102.934 6.375V19.5H100.317V17.475C99.9145 18.025 99.319 18.5417 98.5306 19.025C97.7423 19.5083 96.8281 19.75 95.7882 19.75C94.6811 19.75 93.6663 19.4583 92.7438 18.875C91.838 18.2917 91.1167 17.4833 90.58 16.45C90.0432 15.4167 89.7748 14.2333 89.7748 12.9C89.7748 11.5667 90.0516 10.3917 90.6051 9.375C91.1587 8.34167 91.9218 7.54167 92.8947 6.975C93.8676 6.39167 94.9746 6.1 96.2159 6.1C97.1384 6.1 97.9436 6.3 98.6313 6.7C99.3358 7.1 99.8977 7.56667 100.317 8.1V6.375H102.934ZM96.392 17.375C97.1971 17.375 97.9016 17.1833 98.5055 16.8C99.1093 16.4 99.579 15.8667 99.9144 15.2C100.25 14.5167 100.418 13.75 100.418 12.9C100.418 12.0667 100.25 11.3167 99.9144 10.65C99.579 9.98333 99.1093 9.45833 98.5055 9.075C97.9016 8.675 97.1971 8.475 96.392 8.475C95.6204 8.475 94.9327 8.66667 94.3289 9.05C93.725 9.43333 93.2553 9.95833 92.9199 10.625C92.5844 11.2917 92.4167 12.05 92.4167 12.9C92.4167 13.75 92.5844 14.5167 92.9199 15.2C93.2553 15.8667 93.725 16.4 94.3289 16.8C94.9327 17.1833 95.6204 17.375 96.392 17.375Z" fill="#212529"/>
<path d="M113.471 6.1C114.662 6.1 115.585 6.34167 116.239 6.825C116.893 7.30833 117.346 7.95833 117.597 8.775C117.866 9.59167 118 10.5 118 11.5V19.5H115.408V11.675C115.408 11.0417 115.325 10.475 115.157 9.975C114.989 9.475 114.704 9.08333 114.301 8.8C113.899 8.51667 113.337 8.4 112.616 8.45C111.945 8.45 111.349 8.59167 110.829 8.875C110.309 9.15833 109.898 9.53333 109.596 10C109.295 10.4667 109.144 10.9833 109.144 11.55V19.5H106.552V6.375H109.144V8.45C109.546 7.83333 110.133 7.29167 110.905 6.825C111.676 6.34167 112.532 6.1 113.471 6.1Z" fill="#212529"/>
</svg>
