<svg width="32" height="32" viewBox="0 0 32 32" fill="none" xmlns="http://www.w3.org/2000/svg">
<path fill-rule="evenodd" clip-rule="evenodd" d="M15.6464 9.64645C15.8417 9.45118 16.1583 9.45118 16.3536 9.64645L22.3536 15.6464C22.5488 15.8417 22.5488 16.1583 22.3536 16.3536L16.3536 22.3536C16.1583 22.5488 15.8417 22.5488 15.6464 22.3536C15.4512 22.1583 15.4512 21.8417 15.6464 21.6464L20.7929 16.5H10C9.72386 16.5 9.5 16.2761 9.5 16C9.5 15.7239 9.72386 15.5 10 15.5H20.7929L15.6464 10.3536C15.4512 10.1583 15.4512 9.84171 15.6464 9.64645Z" fill="black"/>
<path fill-rule="evenodd" clip-rule="evenodd" d="M16 31C24.2843 31 31 24.2843 31 16C31 7.71573 24.2843 1 16 1C7.71573 1 1 7.71573 1 16C1 24.2843 7.71573 31 16 31ZM16 32C24.8366 32 32 24.8366 32 16C32 7.16344 24.8366 0 16 0C7.16344 0 0 7.16344 0 16C0 24.8366 7.16344 32 16 32Z" fill="black"/>
</svg>
